<?xml version="1.0" standalone="no"?>
<!DOCTYPE svg PUBLIC "-//W3C//DTD SVG 20010904//EN"
 "http://www.w3.org/TR/2001/REC-SVG-20010904/DTD/svg10.dtd">
<svg version="1.0" xmlns="http://www.w3.org/2000/svg"
 width="972.000000pt" height="972.000000pt" viewBox="0 0 972.000000 972.000000"
 preserveAspectRatio="xMidYMid meet">
<metadata>
Created by potrace 1.11, written by Peter Selinger 2001-2013
</metadata>
<g transform="translate(0.000000,972.000000) scale(0.100000,-0.100000)"
fill="#000000" stroke="none">
<path d="M6480 8411 c-53 -53 -139 -138 -193 -190 -79 -76 -95 -96 -86 -107 9
-12 7 -20 -12 -42 -35 -39 -103 -102 -110 -102 -4 0 -10 -11 -13 -25 -4 -14
-22 -35 -41 -48 -19 -12 -35 -30 -35 -39 0 -12 -8 -18 -22 -18 -17 0 -19 -3
-9 -9 9 -6 11 -16 6 -32 -10 -30 -55 -85 -55 -67 0 8 4 18 9 24 18 19 21 62 6
68 -9 3 -15 -1 -15 -10 0 -10 -6 -14 -15 -10 -10 3 -20 -5 -30 -27 -9 -18 -22
-43 -30 -57 -8 -14 -14 -32 -12 -40 1 -8 -12 -30 -30 -48 -18 -19 -33 -44 -33
-57 0 -13 -5 -27 -11 -30 -16 -11 -30 -54 -40 -130 -18 -138 -21 -147 -35
-141 -11 4 -14 -5 -14 -40 0 -76 -72 -192 -103 -166 -7 6 -73 29 -147 51 -149
44 -335 65 -440 50 -30 -4 -86 -8 -125 -8 -65 -1 -125 -17 -230 -61 -42 -17
-80 -15 -113 8 -46 33 -120 72 -136 72 -22 0 -59 39 -52 55 2 7 -2 16 -10 19
-18 7 -18 9 12 -73 16 -44 23 -78 19 -88 -6 -14 -10 -10 -20 22 -15 48 -78
168 -111 210 -12 17 -48 57 -78 90 -31 33 -56 63 -56 67 0 4 -12 19 -26 33
-30 30 -27 51 7 47 22 -2 21 0 -11 33 -37 39 -115 88 -141 90 -9 1 -29 11 -45
22 -41 28 -64 35 -57 17 7 -20 -1 -18 -47 11 -22 14 -44 25 -50 25 -5 0 -10 5
-10 10 0 6 5 10 10 10 6 0 10 5 10 10 0 6 -9 10 -19 10 -11 0 -32 11 -47 25
-15 14 -39 28 -53 32 -14 3 -33 12 -42 20 -30 25 -191 104 -253 123 -156 48
-176 52 -236 48 -33 -2 -65 -9 -71 -15 -16 -16 -17 -169 -2 -184 9 -9 11 -7 6
10 -4 15 2 29 20 47 22 21 26 23 29 8 6 -31 -4 -114 -13 -108 -5 3 -9 -6 -9
-20 0 -13 -4 -26 -10 -28 -6 -2 -6 -16 2 -40 12 -39 28 -42 28 -5 0 31 18 8
21 -28 2 -16 -2 -39 -8 -50 -6 -11 -10 -31 -9 -44 1 -28 26 -42 26 -15 0 16 1
16 15 -2 8 -10 15 -29 15 -42 0 -22 -1 -22 -16 -7 -9 9 -19 13 -23 9 -3 -4 0
-9 7 -11 6 -3 12 -13 12 -24 0 -10 4 -19 9 -19 5 0 7 -9 4 -20 -4 -14 0 -20
12 -20 12 0 15 -5 10 -20 -11 -34 72 -240 111 -278 14 -13 35 -47 48 -75 54
-121 69 -148 76 -137 9 15 19 1 30 -44 21 -82 52 -182 61 -192 5 -6 7 -13 4
-16 -3 -2 11 -23 30 -45 19 -23 35 -46 35 -52 0 -12 37 -34 48 -27 4 2 30 -16
57 -40 28 -25 60 -47 73 -50 12 -4 22 -10 22 -16 0 -5 9 -18 20 -30 27 -29 26
-48 -2 -41 -19 5 -16 -2 19 -38 43 -46 111 -163 138 -239 9 -25 22 -80 30
-124 13 -76 11 -95 -14 -136 -6 -8 -12 -27 -15 -42 -4 -15 -13 -33 -21 -42 -8
-8 -15 -19 -15 -24 0 -17 -44 -117 -56 -127 -10 -9 -23 -52 -38 -125 -3 -14
-8 -52 -11 -85 -3 -33 -8 -89 -12 -125 -3 -36 -6 -85 -6 -110 1 -64 21 -238
29 -252 4 -6 8 -34 9 -62 1 -28 18 -99 38 -157 20 -58 38 -135 42 -170 3 -35
8 -82 11 -105 7 -49 -10 -118 -36 -144 -20 -20 -23 -30 -21 -72 2 -56 61 -79
80 -30 11 26 11 25 7 -10 -6 -49 8 -59 66 -44 40 11 47 10 52 -3 4 -14 24 -68
71 -201 18 -51 42 -107 55 -132 6 -10 10 -25 10 -33 0 -8 8 -34 19 -58 56
-128 72 -169 86 -230 8 -36 29 -106 47 -154 29 -81 31 -99 33 -223 1 -133 6
-164 60 -380 8 -30 30 -109 50 -175 19 -66 44 -169 54 -230 11 -60 27 -129 36
-153 10 -23 15 -55 12 -70 -4 -19 1 -34 16 -50 20 -22 22 -33 21 -155 -1 -73
-3 -143 -4 -157 -4 -45 18 -314 29 -341 12 -34 57 -69 87 -69 14 0 35 -15 57
-42 l35 -42 82 -2 82 -2 29 41 c16 22 29 47 29 56 0 9 7 29 15 44 8 16 25 59
38 95 21 58 22 70 11 92 -8 14 -14 33 -14 42 0 10 -11 41 -23 70 -38 84 -77
215 -82 273 -2 17 -10 84 -19 150 -9 66 -25 210 -36 320 -11 110 -27 257 -37
326 -16 119 -16 130 1 210 20 97 44 179 58 196 5 7 12 27 15 44 9 60 43 183
53 193 6 6 19 5 34 -2 21 -9 37 -7 94 17 44 18 75 25 88 20 34 -14 53 -9 60
13 21 68 99 138 152 138 31 0 62 -43 72 -101 8 -52 1 -170 -20 -339 -24 -192
-32 -323 -25 -450 4 -74 6 -169 5 -211 -1 -55 4 -90 19 -130 26 -67 26 -89 2
-133 -45 -79 -35 -168 28 -276 21 -36 44 -83 51 -105 7 -22 23 -54 36 -72 25
-33 127 -88 144 -78 6 3 16 3 22 -1 15 -9 33 -13 111 -20 105 -11 151 35 133
131 -4 19 -3 35 1 35 14 0 -1 145 -18 170 -9 14 -39 49 -67 78 -90 96 -155
254 -169 417 -5 68 -3 79 30 161 20 49 41 109 47 134 5 25 25 119 45 210 19
91 39 183 45 205 24 86 28 114 40 227 10 103 9 120 -4 140 -26 37 -20 119 19
239 39 120 92 258 106 275 5 6 13 37 19 70 5 32 16 88 24 124 34 150 42 325
22 492 -9 75 -16 159 -16 185 0 29 -7 58 -17 72 -9 14 -18 48 -19 80 -4 93
-13 171 -19 182 -4 5 -12 8 -18 6 -7 -2 -23 4 -36 14 -31 25 -51 24 -51 -1 0
-11 -4 -20 -10 -20 -5 0 -10 12 -10 27 0 15 -12 44 -26 65 -36 52 -36 104 2
165 39 62 90 88 171 88 l63 0 11 54 c21 104 44 276 53 412 6 81 16 152 33 232
14 65 21 80 46 96 60 38 268 246 301 300 28 46 36 74 46 156 7 55 12 127 11
160 -3 70 16 181 35 212 8 12 14 29 14 37 0 7 7 27 15 42 17 34 19 54 5 54 -5
0 -10 -8 -10 -19 0 -10 -7 -25 -16 -32 -15 -12 -16 -11 -9 11 20 66 25 73 39
61 17 -14 21 -8 30 42 8 43 -5 49 -21 10 -10 -24 -11 -20 -6 27 2 30 8 67 13
82 7 23 6 26 -8 21 -9 -4 -21 -11 -25 -17 -5 -6 -5 0 -1 13 3 14 8 59 9 100 4
109 4 111 15 111 6 0 10 -17 11 -37 0 -21 4 -47 9 -58 7 -19 9 -18 19 9 9 21
9 32 0 42 -9 11 -8 14 4 14 13 0 27 27 27 56 0 7 -11 14 -25 16 -17 4 -25 1
-25 -8 0 -8 -4 -14 -9 -14 -16 0 -23 38 -11 60 6 11 8 25 5 30 -3 6 1 7 10 4
10 -4 15 -2 13 7 -2 7 5 15 15 17 13 2 17 -3 17 -22 0 -14 -4 -28 -10 -31 -5
-3 -10 -11 -10 -17 0 -6 9 -3 20 7 18 16 20 27 15 74 -10 100 -22 154 -34 147
-4 -3 -8 17 -9 45 -1 60 -32 171 -47 166 -15 -5 -34 25 -35 54 0 18 -7 28 -20
32 -11 3 -20 13 -20 24 0 10 -7 27 -15 37 -38 50 0 63 39 14 24 -30 26 -31 26
-11 0 13 -9 28 -20 35 -11 7 -20 18 -20 24 0 7 -15 14 -32 17 -31 4 -40 -2
-128 -92z m-18 -84 c-22 -23 -66 -70 -98 -104 -31 -35 -62 -63 -69 -63 -7 0
-20 -9 -30 -20 -21 -23 -45 -26 -45 -6 0 7 13 19 29 26 16 6 75 58 132 115 56
57 106 102 111 99 5 -3 -9 -25 -30 -47z m63 -127 c-3 -5 -11 -10 -16 -10 -6 0
-7 5 -4 10 3 6 11 10 16 10 6 0 7 -4 4 -10z m185 -10 c0 -5 -2 -10 -4 -10 -3
0 -8 5 -11 10 -3 6 -1 10 4 10 6 0 11 -4 11 -10z m28 -166 c-10 -10 -28 6 -28
24 0 15 1 15 17 -1 9 -9 14 -19 11 -23z m2 -55 c0 -5 -4 -9 -10 -9 -5 0 -10 7
-10 16 0 8 5 12 10 9 6 -3 10 -10 10 -16z m-3703 -21 c-3 -8 -6 -5 -6 6 -1 11
2 17 5 13 3 -3 4 -12 1 -19z m328 -33 c17 -14 24 -25 17 -25 -18 0 -72 32 -72
42 0 15 25 7 55 -17z m2445 -299 c0 -3 -4 -8 -10 -11 -5 -3 -10 -1 -10 4 0 6
5 11 10 11 6 0 10 -2 10 -4z m373 -43 c3 -5 -1 -14 -9 -21 -12 -11 -14 -9 -14
8 0 20 14 27 23 13z m-2178 -13 c3 -5 1 -10 -4 -10 -6 0 -11 5 -11 10 0 6 2
10 4 10 3 0 8 -4 11 -10z m1762 -52 c-3 -8 -6 -5 -6 6 -1 11 2 17 5 13 3 -3 4
-12 1 -19z m383 15 c0 -7 -47 -110 -61 -133 -28 -47 -40 -88 -35 -120 4 -23 2
-30 -4 -21 -7 12 -10 9 -16 -12 -7 -31 3 -49 16 -27 5 9 8 -12 8 -56 0 -54 -2
-64 -10 -44 -5 14 -7 32 -5 42 3 11 -2 18 -16 20 -34 5 -43 31 -29 85 24 86
121 273 143 273 5 0 9 -3 9 -7z m-384 -83 c16 0 19 -21 5 -35 -14 -15 -52
-181 -45 -198 3 -8 -2 -17 -10 -20 -9 -4 -16 -13 -16 -22 0 -8 -4 -15 -10 -15
-5 0 -10 9 -10 20 0 30 40 180 56 212 8 15 12 39 10 55 -2 15 -1 22 1 16 2 -7
11 -13 19 -13z m-2579 -30 c10 -40 5 -51 -15 -27 -19 22 -26 67 -10 67 8 0 19
-17 25 -40z m33 -109 c0 -11 -3 -11 -15 -1 -8 7 -15 22 -15 33 0 20 0 20 15 1
8 -10 15 -25 15 -33z m687 -70 c87 -84 129 -140 161 -218 26 -61 30 -133 7
-133 -10 0 -15 10 -15 29 0 17 -4 33 -10 36 -5 3 -10 14 -10 24 0 10 -11 44
-25 75 -19 43 -52 84 -130 163 -58 58 -105 106 -105 108 0 1 11 0 24 -2 14 -3
60 -39 103 -82z m-637 -48 c0 -7 -5 -13 -10 -13 -11 0 -30 42 -30 63 1 16 39
-34 40 -50z m2699 -75 c-1 -42 -1 -42 -10 -13 -5 17 -7 36 -4 43 9 24 15 11
14 -30z m341 18 c0 -3 -4 -8 -10 -11 -5 -3 -10 -1 -10 4 0 6 5 11 10 11 6 0
10 -2 10 -4z m-159 -33 c0 -11 3 -13 6 -5 7 17 40 15 47 -4 3 -9 6 -27 6 -40
0 -19 -5 -24 -24 -24 -13 0 -26 7 -30 15 -3 8 -11 15 -17 15 -14 0 -49 29 -49
41 0 5 6 6 14 3 8 -3 17 -1 21 5 10 17 25 13 26 -6z m134 -12 c-3 -6 -11 -11
-17 -11 -6 0 -6 6 2 15 14 17 26 13 15 -4z m-2935 -30 c0 -5 2 -24 5 -42 l5
-34 -14 30 c-18 36 -20 55 -6 55 6 0 10 -4 10 -9z m3260 -44 c0 -48 -3 -55
-26 -66 l-27 -12 7 40 c7 47 26 91 38 91 4 0 8 -24 8 -53z m-2590 -35 c15 -44
7 -68 -14 -39 -7 9 -23 17 -35 17 -18 0 -21 6 -21 38 0 21 3 42 7 45 13 14 48
-21 63 -61z m-170 16 c0 -14 -19 1 -31 25 -12 22 -12 22 10 3 11 -11 21 -23
21 -28z m68 -9 c19 -30 8 -34 -12 -4 -9 14 -13 25 -9 25 5 0 14 -9 21 -21z
m1673 11 c30 -16 23 -31 -8 -18 -16 7 -32 15 -37 20 -14 12 22 10 45 -2z
m-996 -10 c-3 -5 -14 -10 -23 -10 -15 0 -15 2 -2 10 20 13 33 13 25 0z m1765
2 c0 -16 -52 -53 -66 -48 -22 8 -17 24 14 39 31 17 52 20 52 9z m-1873 -24
c-3 -8 -6 -5 -6 6 -1 11 2 17 5 13 3 -3 4 -12 1 -19z m-620 -10 c-3 -8 -6 -5
-6 6 -1 11 2 17 5 13 3 -3 4 -12 1 -19z m2513 -6 c0 -16 -25 -41 -44 -44 -30
-5 -29 16 1 34 31 19 43 22 43 10z m-2400 -28 c0 -14 -4 -23 -10 -19 -5 3 -10
15 -10 26 0 10 5 19 10 19 6 0 10 -12 10 -26z m1655 -24 c-8 -13 -35 0 -35 16
0 12 4 12 20 4 11 -6 18 -15 15 -20z m-1699 -29 c-4 -60 -11 -71 -40 -71 -27
0 -44 38 -21 46 7 3 16 17 20 32 6 25 21 42 38 42 4 0 5 -22 3 -49z m2638 -25
c-16 -26 -16 -26 10 -26 32 0 33 -18 2 -47 -13 -13 -27 -39 -31 -59 -4 -23
-13 -38 -24 -41 -10 -3 -28 -18 -40 -34 -12 -16 -28 -29 -36 -29 -8 0 -15 -9
-15 -19 0 -28 -84 -95 -110 -88 -11 3 -23 1 -26 -4 -6 -10 -24 -3 -24 10 0 5
17 20 38 34 77 52 215 213 193 226 -17 11 13 88 47 124 l27 29 3 -26 c2 -13
-4 -36 -14 -50z m-2580 29 c-4 -8 -8 -15 -10 -15 -2 0 -4 7 -4 15 0 8 4 15 10
15 5 0 7 -7 4 -15z m-142 -105 c-1 -13 -7 -29 -13 -37 -13 -15 -49 -18 -49 -3
0 6 5 10 10 10 6 0 10 11 10 23 0 29 9 39 30 34 9 -2 14 -12 12 -27z m-82 -34
c0 -3 -4 -8 -10 -11 -5 -3 -10 -1 -10 4 0 6 5 11 10 11 6 0 10 -2 10 -4z m82
-378 c53 -24 61 -38 23 -38 -35 0 -85 27 -85 45 0 20 5 19 62 -7z m1799 -259
c-10 -24 -24 -55 -29 -69 -9 -22 -11 -23 -17 -7 -8 20 9 66 38 103 27 35 31
24 8 -27z m247 19 c2 -19 -3 -30 -18 -38 -27 -14 -50 2 -50 35 0 29 9 37 40
33 19 -2 26 -10 28 -30z m-108 -23 c10 -13 8 -22 -14 -53 -15 -22 -26 -52 -26
-70 0 -43 -31 -61 -60 -32 -24 24 -25 48 -5 98 26 62 78 90 105 57z m-1412
-12 l37 -17 -85 -6 c-87 -7 -120 -15 -120 -31 0 -5 -6 -9 -13 -9 -7 0 -30 -12
-50 -26 -70 -47 -59 -2 12 50 80 58 150 70 219 39z m-12 -108 c30 -12 35 -19
32 -42 -3 -28 -4 -28 -63 -25 -34 2 -72 -1 -86 -6 -59 -23 -81 35 -26 68 38
24 94 26 143 5z m1637 -93 c-7 -17 -22 -32 -35 -32 -15 0 -8 39 9 49 23 12 34
5 26 -17z m-1523 -7 c23 -28 -9 -72 -45 -59 -36 14 -24 74 15 74 10 0 23 -7
30 -15z m140 -99 c0 -8 -4 -17 -9 -21 -12 -7 -24 12 -16 25 9 15 25 12 25 -4z
m-395 -134 c-9 -9 -35 8 -35 24 0 16 2 16 20 -1 11 -10 18 -20 15 -23z m103
-179 c52 -21 81 -51 88 -90 6 -33 3 -41 -64 -181 -9 -18 -28 -41 -44 -50 -15
-9 -28 -19 -28 -23 0 -8 -115 -22 -160 -20 -43 3 -123 37 -145 61 -24 26 -22
97 3 145 35 68 132 151 207 177 27 9 97 0 143 -19z m1717 -264 l3 -44 -15 34
c-8 18 -12 40 -8 49 9 23 16 9 20 -39z m25 -104 c0 -8 -2 -15 -4 -15 -2 0 -6
7 -10 15 -3 8 -1 15 4 15 6 0 10 -7 10 -15z m-1620 -423 c0 -9 -5 -33 -11 -52
-6 -19 -10 -50 -10 -67 0 -21 -4 -33 -13 -33 -41 0 -45 71 -8 134 23 39 42 47
42 18z m1386 -14 c4 -6 7 -31 5 -55 -1 -24 2 -43 7 -43 18 0 21 -92 6 -192
-13 -92 -31 -142 -59 -174 -5 -6 -28 -34 -50 -62 -22 -28 -48 -51 -57 -52 -10
0 -18 -6 -18 -12 -1 -19 -33 -54 -71 -77 -78 -48 -195 -101 -221 -101 -48 0
-33 27 22 40 28 7 52 16 55 20 3 5 26 19 53 32 35 17 42 24 27 26 -12 1 -26
12 -33 22 -11 17 -8 23 25 44 41 25 83 73 83 93 0 6 10 19 21 27 12 8 36 47
54 86 38 82 45 92 77 95 13 1 26 3 31 4 4 0 7 12 7 26 0 13 7 45 15 69 14 41
14 49 0 75 -29 57 -10 159 21 109z m-1286 -42 c0 -3 -4 -8 -10 -11 -5 -3 -10
-1 -10 4 0 6 5 11 10 11 6 0 10 -2 10 -4z m-208 -61 c3 -14 1 -25 -3 -25 -5 0
-9 11 -9 25 0 14 2 25 4 25 2 0 6 -11 8 -25z m19 -90 c9 -27 14 -34 17 -22 3
13 9 16 24 12 14 -5 21 -1 25 14 15 58 60 -19 50 -85 -3 -18 -2 -36 3 -39 4
-3 6 -13 3 -24 -3 -12 2 -20 15 -23 25 -7 62 -77 62 -117 0 -16 4 -31 8 -33
17 -6 22 -55 8 -68 -12 -9 -19 -7 -35 9 -36 36 -24 -3 12 -43 37 -40 48 -43
71 -20 9 9 16 11 16 4 0 -6 16 -26 36 -44 21 -19 34 -39 30 -45 -4 -6 -2 -11
3 -11 6 0 11 7 11 15 0 8 4 15 8 15 13 0 39 -24 45 -42 5 -15 -1 -16 -56 -12
-84 6 -138 42 -229 154 -39 49 -118 194 -118 220 0 8 -7 35 -16 59 -16 47 -28
190 -15 175 5 -5 15 -27 22 -49z m754 -25 c44 -17 27 -42 -45 -67 -85 -29
-136 -30 -145 -2 -9 29 19 56 74 74 46 14 68 13 116 -5z m-545 -21 c0 -5 -4
-9 -10 -9 -5 0 -10 7 -10 16 0 8 5 12 10 9 6 -3 10 -10 10 -16z m868 -227 c4
-26 -35 -51 -44 -28 -7 19 14 58 29 53 7 -2 13 -13 15 -25z m-755 -142 c15 0
87 -51 87 -61 0 -5 -7 -9 -15 -9 -8 0 -15 4 -15 9 0 4 -18 20 -40 35 -22 14
-40 32 -39 39 0 9 2 9 6 0 2 -7 10 -13 16 -13z m937 -269 c0 -6 -4 -13 -10
-16 -5 -3 -10 1 -10 9 0 9 5 16 10 16 6 0 10 -4 10 -9z m-70 -110 c0 -12 -29
-35 -36 -28 -7 6 17 36 29 37 4 0 7 -4 7 -9z m-165 -81 c-3 -5 -11 -10 -16
-10 -6 0 -7 5 -4 10 3 6 11 10 16 10 6 0 7 -4 4 -10z m-535 -55 c0 -8 -4 -15
-10 -15 -5 0 -10 7 -10 15 0 8 5 15 10 15 6 0 10 -7 10 -15z m228 -17 c-6 -18
-28 -21 -28 -4 0 9 7 16 16 16 9 0 14 -5 12 -12z m142 -28 c0 -5 -2 -10 -4
-10 -3 0 -8 5 -11 10 -3 6 -1 10 4 10 6 0 11 -4 11 -10z m-173 -35 c-16 -15
-37 -20 -37 -9 0 3 10 14 23 24 25 21 37 8 14 -15z m723 -561 c-11 -44 -22
-97 -25 -118 -4 -21 -13 -55 -20 -76 -7 -21 -17 -59 -20 -84 -4 -25 -11 -46
-16 -46 -10 0 -10 43 2 85 4 17 10 55 13 85 2 30 9 66 14 80 5 14 10 28 10 33
6 47 47 135 59 124 2 -2 -6 -40 -17 -83z m-80 -356 c0 -16 -3 -19 -11 -11 -6
6 -8 16 -5 22 11 17 16 13 16 -11z m0 -67 c0 -31 -14 -49 -25 -32 -8 13 5 61
16 61 5 0 9 -13 9 -29z m0 -61 c0 -5 -4 -10 -10 -10 -5 0 -10 5 -10 10 0 6 5
10 10 10 6 0 10 -4 10 -10z m-864 -82 c1 -29 5 -91 9 -138 11 -131 16 -200 19
-262 1 -32 5 -61 9 -64 4 -4 7 -25 7 -46 0 -32 3 -38 23 -39 17 -1 18 -2 4 -6
-9 -2 -14 -9 -11 -15 7 -11 -31 -50 -40 -41 -3 4 -6 2 -6 -4 0 -6 7 -16 15
-23 16 -13 20 -30 8 -30 -11 0 -63 46 -63 55 0 4 7 5 15 1 17 -6 22 29 5 39
-6 4 -8 11 -4 16 6 11 6 113 -2 234 -15 251 -14 398 3 381 3 -3 7 -29 9 -58z
m839 -88 c3 -5 1 -10 -4 -10 -6 0 -11 5 -11 10 0 6 2 10 4 10 3 0 8 -4 11 -10z
m34 -29 c7 -5 12 -14 9 -21 -2 -7 -10 -4 -22 9 -19 21 -12 28 13 12z m60 -77
c17 -32 45 -64 55 -64 10 0 42 -35 49 -53 4 -12 1 -17 -9 -17 -21 0 -147 128
-139 140 4 6 1 10 -4 10 -6 0 -11 5 -11 11 0 22 44 3 59 -27z m-106 -82 c-2
-12 2 -22 7 -22 6 0 10 -6 10 -13 0 -22 49 -117 61 -117 5 0 8 -4 5 -8 -11
-18 96 -54 115 -40 11 7 11 11 2 15 -7 2 -13 9 -13 14 0 6 3 8 8 6 4 -3 5 19
4 49 -7 99 42 53 62 -60 6 -32 5 -38 -8 -33 -18 7 -69 -17 -59 -27 4 -4 0 -4
-9 -1 -9 4 -19 2 -23 -4 -3 -6 -17 -8 -31 -5 -17 4 -26 1 -30 -10 -8 -22 -31
-20 -44 3 -13 25 -14 52 0 31 5 -8 13 -11 17 -6 4 4 1 13 -7 19 -18 14 -64
116 -56 124 3 3 -3 18 -14 32 -10 15 -22 40 -26 55 -6 24 -4 27 12 24 13 -3
18 -11 17 -26z m-713 -312 c0 -5 -4 -10 -9 -10 -6 0 -13 5 -16 10 -3 6 1 10 9
10 9 0 16 -4 16 -10z m-145 -20 c-10 -11 -13 -20 -7 -20 12 0 22 -39 22 -90 0
-94 -7 -171 -17 -181 -15 -15 -33 -3 -33 22 0 10 -4 19 -8 19 -15 0 -44 188
-33 208 9 16 10 16 16 0 9 -22 25 -24 25 -4 0 30 20 66 36 66 16 0 15 -2 -1
-20z m-75 -2 c0 -7 -5 -20 -10 -28 -8 -12 -10 -9 -10 13 0 15 5 27 10 27 6 0
10 -6 10 -12z m135 -108 c3 -5 1 -10 -4 -10 -6 0 -11 5 -11 10 0 6 2 10 4 10
3 0 8 -4 11 -10z m11 -69 c1 -16 5 -37 9 -47 5 -11 9 -32 10 -47 3 -26 2 -27
-10 -10 -16 22 -31 133 -19 133 5 0 9 -13 10 -29z m99 -128 c-3 -85 -5 -91
-17 -63 -16 36 -8 120 12 120 4 0 7 -26 5 -57z"/>
<path d="M4473 4179 c12 -29 12 -30 18 -7 7 27 3 38 -16 38 -11 0 -11 -6 -2
-31z"/>
<path d="M6100 8049 c0 -5 5 -7 10 -4 6 3 10 8 10 11 0 2 -4 4 -10 4 -5 0 -10
-5 -10 -11z"/>
<path d="M6001 7961 c-39 -39 -51 -61 -32 -61 12 0 85 90 78 96 -3 3 -24 -13
-46 -35z"/>
<path d="M6772 7639 c-2 -34 0 -49 7 -44 12 7 15 95 4 95 -5 0 -9 -23 -11 -51z"/>
<path d="M6753 7545 c-8 -22 6 -33 17 -15 13 20 12 30 0 30 -6 0 -13 -7 -17
-15z"/>
<path d="M4096 7519 c10 -11 27 -25 37 -31 16 -8 15 -5 -4 21 -12 17 -29 31
-37 31 -12 0 -11 -4 4 -21z"/>
<path d="M6740 7494 c0 -8 5 -12 10 -9 6 3 10 10 10 16 0 5 -4 9 -10 9 -5 0
-10 -7 -10 -16z"/>
<path d="M4240 7356 c0 -10 50 -86 56 -86 2 0 4 6 4 13 0 15 -59 87 -60 73z"/>
<path d="M5672 7348 c-14 -14 -17 -62 -3 -54 7 4 22 66 16 66 0 0 -6 -5 -13
-12z"/>
<path d="M3371 6724 c0 -11 3 -14 6 -6 3 7 2 16 -1 19 -3 4 -6 -2 -5 -13z"/>
<path d="M3380 6666 c0 -14 5 -28 10 -31 6 -3 10 5 10 19 0 14 -4 28 -10 31
-6 3 -10 -5 -10 -19z"/>
<path d="M3410 6585 c0 -8 4 -15 10 -15 5 0 7 7 4 15 -4 8 -8 15 -10 15 -2 0
-4 -7 -4 -15z"/>
<path d="M3434 6548 c-3 -4 4 -8 15 -8 12 0 21 4 21 8 0 5 -7 9 -15 9 -9 0
-18 -4 -21 -9z"/>
<path d="M3476 6521 c-6 -9 14 -28 51 -48 42 -24 45 -9 8 31 -24 26 -49 34
-59 17z"/>
<path d="M3590 6447 c20 -18 70 -39 70 -29 0 15 -41 42 -62 42 -19 0 -20 -2
-8 -13z"/>
<path d="M928 6108 c-16 -5 -28 -14 -28 -19 0 -6 -4 -8 -9 -5 -14 9 -22 -24
-15 -62 5 -25 4 -33 -5 -28 -7 5 -11 0 -11 -13 0 -35 72 -154 124 -206 28 -27
82 -86 121 -131 39 -44 76 -79 81 -77 13 4 113 -72 121 -93 3 -8 11 -14 19
-14 8 0 14 -7 14 -16 0 -9 5 -12 12 -8 8 5 9 2 5 -9 -3 -10 -2 -17 2 -17 5 0
19 -16 32 -36 14 -23 24 -32 29 -24 5 7 17 0 35 -22 15 -18 34 -32 42 -30 7 2
12 -3 11 -10 -2 -7 5 -12 14 -12 10 1 20 -7 23 -17 4 -11 10 -17 15 -14 5 3
11 1 15 -5 18 -29 -75 20 -143 74 -31 26 -108 105 -141 146 -42 51 -94 100
-100 94 -3 -2 9 -19 25 -37 17 -17 46 -52 65 -77 46 -61 114 -130 127 -130 6
0 17 -6 24 -13 27 -27 135 -95 208 -132 41 -21 91 -51 110 -67 40 -33 42 -35
90 -68 19 -14 41 -23 48 -22 8 2 11 -1 8 -6 -8 -13 72 -72 88 -66 6 2 24 -16
39 -41 16 -25 32 -45 37 -45 17 0 52 -76 65 -140 8 -36 17 -75 20 -87 5 -17 3
-23 -7 -23 -26 0 -15 -33 24 -74 l36 -38 36 27 c35 27 36 29 21 51 -8 13 -13
24 -9 24 13 0 44 -44 44 -62 0 -11 4 -17 9 -13 5 3 16 -3 23 -14 13 -18 21
-19 74 -12 32 5 64 7 70 4 6 -2 22 1 36 6 22 8 27 7 31 -10 8 -28 37 -24 37 5
0 13 4 26 9 28 5 2 11 21 12 43 2 22 8 43 13 47 6 4 5 12 -3 21 -8 10 -8 17
-2 21 6 4 15 -12 21 -35 7 -24 23 -51 36 -61 17 -14 24 -29 24 -56 0 -28 3
-33 10 -22 7 11 12 12 18 4 9 -15 83 -54 100 -54 7 0 17 11 22 25 13 33 30 32
31 -2 0 -28 0 -28 10 -4 7 17 13 21 22 13 8 -7 20 -4 39 13 15 13 24 26 20 30
-4 5 3 5 16 2 19 -4 23 -2 22 16 -4 42 -1 54 9 38 12 -19 31 17 31 58 0 28 9
36 34 32 5 -1 4 5 -4 13 -7 10 -8 16 -2 16 6 0 13 -9 17 -20 8 -26 37 -21 73
13 15 15 33 27 38 27 22 0 44 117 27 134 -11 10 -13 166 -3 166 5 0 14 -26 20
-57 13 -67 38 -126 49 -118 5 2 16 -4 25 -14 13 -14 14 -27 8 -63 -10 -50 -5
-108 9 -108 5 0 6 6 3 13 -3 8 2 14 11 14 21 0 19 -7 -9 -39 -31 -37 -36 -35
-30 10 l4 37 -15 -43 c-7 -23 -21 -49 -29 -58 -9 -8 -16 -24 -16 -34 0 -10 -4
-21 -9 -25 -13 -7 -53 -116 -46 -123 2 -3 11 11 19 30 9 20 22 38 29 41 8 3
17 18 21 33 8 31 83 124 101 124 14 0 71 77 90 124 17 40 19 59 5 36 -5 -8
-12 -12 -15 -8 -3 3 5 19 19 35 32 38 53 141 36 173 -9 17 -9 24 0 30 14 9
-101 128 -145 150 -16 8 -36 23 -43 33 -7 9 -37 29 -65 44 -29 14 -57 34 -64
43 -14 19 -62 45 -107 56 -24 6 -28 4 -23 -8 8 -23 -13 -40 -29 -23 -12 12
-18 12 -42 -1 -15 -7 -35 -11 -44 -8 -10 3 -18 -2 -21 -13 -4 -17 -5 -17 -6 1
-1 15 -4 16 -16 6 -11 -9 -15 -9 -15 -1 0 8 -15 11 -42 9 -40 -3 -43 -5 -46
-33 -2 -16 -8 -34 -14 -40 -6 -7 -9 -3 -6 10 1 11 -1 20 -7 20 -5 1 -28 7 -49
13 -40 11 -40 11 -85 -35 -26 -28 -54 -47 -68 -48 -25 -1 -25 0 -27 65 0 25
-5 45 -11 46 -5 0 -18 4 -27 8 -9 4 -22 5 -27 1 -6 -3 -13 11 -17 35 -4 23
-13 44 -19 47 -8 3 -13 23 -13 56 1 150 -4 192 -30 240 -31 58 -42 56 -12 -3
12 -23 19 -47 16 -53 -3 -9 -5 -9 -5 1 -1 6 -6 12 -11 12 -7 0 -7 -6 -2 -17 9
-17 33 -139 31 -159 0 -5 -12 31 -25 81 -14 49 -28 92 -32 95 -4 3 -7 10 -8
15 -1 33 -18 94 -32 120 -29 53 -53 70 -122 80 -42 6 -48 4 -88 -30 -24 -21
-60 -70 -83 -111 -41 -75 -55 -87 -66 -59 -3 9 -20 23 -37 31 -17 9 -67 40
-111 69 -259 171 -520 298 -721 349 -70 18 -106 19 -146 4z m7 -208 c3 -5 2
-10 -4 -10 -5 0 -13 5 -16 10 -3 6 -2 10 4 10 5 0 13 -4 16 -10z m1273 -86 c2
-13 0 -15 -5 -7 -5 7 -17 10 -28 9 -28 -5 -38 3 -25 19 15 18 54 4 58 -21z
m-15 -64 c16 -13 24 -27 20 -36 -4 -12 -8 -12 -20 -2 -14 11 -15 9 -9 -17 3
-17 10 -62 16 -101 5 -39 13 -80 17 -90 6 -17 5 -17 -10 -5 -9 7 -17 19 -17
26 0 7 -7 26 -15 41 -8 16 -15 39 -15 52 0 12 -4 22 -9 22 -5 0 -7 9 -4 20 3
11 0 26 -6 34 -6 7 -9 21 -6 30 3 9 7 23 10 31 6 20 17 19 48 -5z m-58 -69 c3
-5 1 -12 -5 -16 -5 -3 -10 1 -10 9 0 18 6 21 15 7z m-990 -11 c3 -5 2 -10 -4
-10 -5 0 -13 5 -16 10 -3 6 -2 10 4 10 5 0 13 -4 16 -10z m125 -61 c0 -15 -11
-10 -31 14 -28 34 -23 54 6 23 14 -15 25 -31 25 -37z m957 39 c-3 -8 -6 -5 -6
6 -1 11 2 17 5 13 3 -3 4 -12 1 -19z m-927 -45 c0 -13 2 -15 8 -5 8 12 34 8
57 -10 50 -38 119 -104 117 -111 -1 -5 2 -6 7 -3 5 3 22 -7 38 -24 15 -16 33
-30 39 -30 6 0 21 -11 34 -25 13 -14 29 -25 35 -25 7 0 20 -15 29 -32 8 -18
16 -29 16 -25 0 4 15 -3 33 -17 19 -14 37 -23 42 -18 5 4 5 1 1 -5 -4 -7 -2
-13 3 -13 6 0 11 -11 11 -24 0 -14 5 -28 10 -31 6 -3 10 -12 9 -18 0 -8 -3 -7
-6 2 -4 10 -7 10 -13 2 -5 -9 -18 -6 -48 9 -23 12 -40 25 -38 29 3 4 -4 8 -15
8 -18 2 -69 33 -97 60 -8 7 -29 25 -48 39 -19 15 -53 44 -77 65 -23 22 -45 39
-49 39 -4 0 -9 9 -13 19 -3 11 -15 23 -25 26 -28 9 -92 99 -84 119 8 21 24 20
24 -1z m827 -325 c-3 -8 -6 -5 -6 6 -1 11 2 17 5 13 3 -3 4 -12 1 -19z m-17
-8 c0 -5 -4 -10 -10 -10 -5 0 -10 5 -10 10 0 6 5 10 10 10 6 0 10 -4 10 -10z
m1050 0 c0 -5 -2 -10 -4 -10 -3 0 -8 5 -11 10 -3 6 -1 10 4 10 6 0 11 -4 11
-10z m-20 -29 c0 -5 -11 -8 -24 -7 -13 0 -22 4 -19 9 6 10 43 9 43 -2z m-1335
-11 c3 -5 2 -10 -4 -10 -5 0 -13 5 -16 10 -3 6 -2 10 4 10 5 0 13 -4 16 -10z
m1165 -96 c0 -21 35 -35 49 -21 10 10 12 3 9 -33 -2 -25 1 -45 7 -45 6 -1 23
-4 38 -8 18 -5 34 -3 43 4 11 9 15 8 18 -2 13 -40 12 -75 -3 -116 -15 -42 -20
-46 -86 -72 -65 -25 -70 -29 -70 -56 0 -29 -20 -53 -33 -40 -4 3 0 10 7 15 8
5 11 15 7 26 -5 12 -10 14 -17 7 -8 -8 -24 -2 -55 20 -24 17 -44 35 -44 39 0
5 -12 13 -27 19 -23 8 -30 7 -41 -8 -10 -13 -16 -14 -19 -5 -3 6 -11 12 -19
12 -18 0 -18 10 3 84 19 69 52 127 85 150 30 21 38 20 39 -6 1 -18 2 -19 6 -5
2 9 9 15 14 12 15 -10 10 7 -8 28 -18 19 -17 20 10 13 22 -5 27 -3 27 12 0 10
3 22 7 25 8 9 53 -32 53 -49z m-823 -66 c4 10 8 10 19 1 8 -6 14 -17 14 -23 0
-6 10 -16 22 -21 12 -6 29 -28 37 -50 9 -22 23 -49 33 -59 10 -11 18 -28 18
-38 0 -10 4 -17 9 -15 13 3 81 -110 81 -134 0 -11 7 -19 15 -19 8 0 15 5 15
11 0 5 5 7 10 4 6 -3 10 -16 10 -29 0 -12 6 -31 14 -42 28 -37 28 8 0 76 -14
35 -22 66 -17 67 5 2 7 31 5 65 -4 52 -2 60 11 55 9 -3 18 1 21 10 6 14 20 11
21 -5 2 -23 21 -59 36 -70 17 -11 19 -27 19 -125 l0 -112 -31 -18 c-30 -17
-33 -17 -52 0 -10 10 -23 29 -28 42 -5 13 -12 21 -15 18 -3 -3 1 -20 10 -38
20 -40 20 -38 -6 -36 -21 1 -58 49 -58 75 0 19 -33 48 -52 44 -24 -5 -77 58
-124 146 -42 78 -67 143 -44 112 9 -12 10 -10 4 10 -14 50 -24 95 -23 115 0
17 2 16 11 -5 6 -16 12 -20 15 -12z m1290 -7 c27 -24 31 -35 31 -80 1 -28 -4
-51 -9 -51 -6 0 -7 -4 -4 -10 3 -6 -1 -7 -9 -4 -9 3 -14 10 -11 14 3 5 -11 18
-30 30 -27 17 -33 25 -25 35 6 7 8 20 4 29 -4 9 -1 16 6 16 8 0 11 9 8 25 -7
32 0 31 39 -4z m-679 -6 c-6 -14 -13 -23 -15 -21 -5 5 15 46 22 46 3 0 -1 -11
-7 -25z m-31 -67 c-3 -8 -6 -5 -6 6 -1 11 2 17 5 13 3 -3 4 -12 1 -19z m-86
-95 c11 -71 6 -86 -17 -63 -12 12 -6 70 7 70 5 0 10 -3 10 -7z m514 -13 c3 -5
1 -10 -4 -10 -6 0 -11 5 -11 10 0 6 2 10 4 10 3 0 8 -4 11 -10z m-282 -117
c11 -10 17 -13 14 -6 -5 8 -1 8 17 0 13 -7 22 -15 19 -19 -2 -5 -9 -6 -14 -3
-5 4 -6 -12 -3 -37 6 -41 4 -46 -32 -77 -71 -63 -141 -77 -200 -40 -38 23 -44
52 -20 97 15 29 59 73 91 90 32 18 106 14 128 -5z m163 -90 c-7 -7 -26 7 -26
19 0 6 6 6 15 -2 9 -7 13 -15 11 -17z m339 17 c3 -5 1 -10 -4 -10 -6 0 -11 5
-11 10 0 6 2 10 4 10 3 0 8 -4 11 -10z m-760 -10 c3 -6 -1 -7 -9 -4 -18 7 -21
14 -7 14 6 0 13 -4 16 -10z"/>
<path d="M1327 5575 c-4 -8 -2 -17 3 -20 6 -4 10 3 10 14 0 25 -6 27 -13 6z"/>
<path d="M1434 5468 c6 -10 14 -18 18 -18 5 0 8 8 8 18 0 11 -7 18 -19 18 -15
0 -17 -3 -7 -18z"/>
<path d="M1485 5440 c-3 -5 -1 -10 4 -10 6 0 11 5 11 10 0 6 -2 10 -4 10 -3 0
-8 -4 -11 -10z"/>
<path d="M2903 5059 c-41 -26 -95 -107 -91 -137 2 -12 6 -21 9 -20 3 2 18 -11
33 -28 30 -37 67 -49 98 -33 11 6 40 29 64 51 33 30 41 44 34 56 -4 10 -14 32
-20 50 -13 33 -62 82 -83 82 -7 0 -26 -10 -44 -21z m47 -59 c0 -5 -5 -10 -11
-10 -5 0 -7 5 -4 10 3 6 8 10 11 10 2 0 4 -4 4 -10z m-55 -11 c7 -11 -22 -49
-37 -49 -12 0 -10 34 4 48 15 15 25 15 33 1z"/>
<path d="M2507 4739 c-7 -88 -4 -109 12 -109 7 0 3 190 -4 198 -1 1 -5 -39 -8
-89z"/>
<path d="M7672 5825 c-13 -27 -17 -47 -11 -50 5 -4 16 9 24 29 8 19 19 37 25
41 14 9 12 25 -3 25 -7 0 -23 -20 -35 -45z"/>
<path d="M7755 5690 c-7 -12 31 -96 48 -107 6 -4 8 0 4 10 -3 9 -11 34 -17 56
-11 43 -24 58 -35 41z"/>
<path d="M7850 5675 c0 -8 4 -15 10 -15 5 0 7 7 4 15 -4 8 -8 15 -10 15 -2 0
-4 -7 -4 -15z"/>
<path d="M7637 5564 c-4 -4 -7 -23 -6 -43 l1 -36 9 33 c11 36 9 58 -4 46z"/>
<path d="M7899 5555 c-8 -7 11 -75 20 -75 3 0 7 11 7 25 1 14 -2 25 -6 25 -5
0 -10 7 -12 16 -2 9 -6 13 -9 9z"/>
<path d="M9264 5534 c-18 -14 -18 -14 6 -3 31 14 36 19 24 19 -6 0 -19 -7 -30
-16z"/>
<path d="M7828 5493 c-3 -4 -2 -19 2 -33 l6 -25 8 24 c8 22 -7 52 -16 34z"/>
<path d="M7622 5460 c0 -14 2 -19 5 -12 2 6 2 18 0 25 -3 6 -5 1 -5 -13z"/>
<path d="M9155 5470 c-3 -6 1 -7 9 -4 18 7 21 14 7 14 -6 0 -13 -4 -16 -10z"/>
<path d="M7920 5458 c1 -7 12 -33 25 -58 21 -38 24 -40 19 -15 -11 51 -45 108
-44 73z"/>
<path d="M9115 5450 c-3 -5 -1 -10 4 -10 6 0 11 5 11 10 0 6 -2 10 -4 10 -3 0
-8 -4 -11 -10z"/>
<path d="M2590 5421 c-11 -7 -6 -10 20 -9 19 0 67 -2 105 -5 66 -5 100 -13
218 -51 26 -8 47 -11 47 -6 0 9 -78 41 -145 59 -59 15 -227 24 -245 12z"/>
<path d="M9285 5406 c-27 -13 -59 -31 -70 -40 -17 -13 -18 -15 -3 -16 20 0
138 61 138 72 0 12 -10 9 -65 -16z"/>
<path d="M2490 5397 c-25 -11 -40 -22 -33 -24 16 -6 100 32 88 39 -6 3 -30 -4
-55 -15z"/>
<path d="M9041 5406 c-10 -12 -8 -13 9 -9 25 7 37 23 17 23 -8 0 -20 -6 -26
-14z"/>
<path d="M7626 5394 c-4 -10 -1 -14 6 -12 15 5 23 28 10 28 -5 0 -13 -7 -16
-16z"/>
<path d="M8985 5370 c-3 -5 -1 -10 4 -10 6 0 11 5 11 10 0 6 -2 10 -4 10 -3 0
-8 -4 -11 -10z"/>
<path d="M8945 5350 c-3 -5 -2 -10 4 -10 5 0 13 5 16 10 3 6 2 10 -4 10 -5 0
-13 -4 -16 -10z"/>
<path d="M7850 5326 c0 -2 6 -35 14 -73 8 -37 13 -106 12 -151 -1 -80 12 -145
15 -72 1 19 3 47 5 62 5 48 -20 231 -34 236 -6 2 -12 1 -12 -2z"/>
<path d="M9353 5243 c-13 -31 -21 -58 -19 -60 5 -6 48 97 44 108 -2 5 -13 -17
-25 -48z"/>
<path d="M9060 5240 c0 -5 5 -10 10 -10 6 0 10 5 10 10 0 6 -4 10 -10 10 -5 0
-10 -4 -10 -10z"/>
<path d="M9001 5195 c-17 -19 -19 -25 -8 -25 17 0 47 26 47 41 0 15 -14 10
-39 -16z"/>
<path d="M8715 5180 c-3 -5 -2 -10 4 -10 5 0 13 5 16 10 3 6 2 10 -4 10 -5 0
-13 -4 -16 -10z"/>
<path d="M9317 5163 c-4 -3 -7 -11 -7 -17 0 -6 5 -5 12 2 6 6 9 14 7 17 -3 3
-9 2 -12 -2z"/>
<path d="M8660 5140 c0 -5 4 -10 9 -10 6 0 13 5 16 10 3 6 -1 10 -9 10 -9 0
-16 -4 -16 -10z"/>
<path d="M7958 5104 c-3 -16 -12 -65 -21 -109 -28 -144 -34 -196 -24 -202 5
-3 7 -17 4 -32 -8 -37 2 -47 43 -49 19 -1 46 -3 60 -4 23 -3 25 1 30 51 5 49
1 97 -16 181 -2 14 -7 42 -10 63 -4 20 -10 37 -16 37 -5 0 -7 9 -3 19 4 12 -3
29 -18 47 l-24 28 -5 -30z"/>
<path d="M8631 5104 c0 -11 3 -14 6 -6 3 7 2 16 -1 19 -3 4 -6 -2 -5 -13z"/>
<path d="M9286 5104 c-4 -9 -4 -19 -1 -22 2 -3 7 3 11 12 4 9 4 19 1 22 -2 3
-7 -3 -11 -12z"/>
<path d="M8045 5075 c9 -27 22 -115 30 -202 5 -46 11 -71 17 -67 21 14 -10
236 -38 270 -15 18 -15 18 -9 -1z"/>
<path d="M8576 5064 c-4 -10 -1 -14 6 -12 15 5 23 28 10 28 -5 0 -13 -7 -16
-16z"/>
<path d="M8481 4979 c-23 -25 -27 -39 -11 -39 6 0 10 5 10 11 0 7 8 18 17 25
10 7 15 15 11 19 -3 3 -15 -4 -27 -16z"/>
<path d="M7870 4964 c0 -14 5 -24 11 -22 6 2 10 7 10 11 -1 4 -1 14 -1 22 0 8
-4 15 -10 15 -5 0 -10 -12 -10 -26z"/>
<path d="M1961 4873 c7 -12 15 -20 18 -17 3 2 -3 12 -13 22 -17 16 -18 16 -5
-5z"/>
<path d="M8505 4879 c-11 -5 -28 -23 -37 -39 -9 -17 -24 -30 -33 -30 -8 0 -15
-5 -15 -11 0 -5 -4 -7 -10 -4 -5 3 -10 1 -10 -4 0 -6 5 -11 10 -11 6 0 10 -9
10 -20 0 -15 -7 -20 -27 -20 -22 0 -25 -2 -13 -10 8 -5 15 -15 16 -22 3 -34 5
-38 22 -38 16 1 16 1 0 11 -18 10 -25 29 -10 29 4 0 18 -9 31 -19 l24 -18 -20
-18 c-12 -10 -19 -25 -16 -36 6 -21 37 -34 54 -23 8 4 9 3 5 -4 -4 -7 -3 -12
1 -12 11 0 67 59 77 80 4 8 13 26 21 40 8 14 15 33 15 44 0 15 -3 16 -15 6 -9
-8 -15 -8 -15 -2 0 6 -3 17 -6 26 -4 11 2 19 17 25 15 6 18 10 8 10 -11 1 -16
11 -17 33 -1 44 -25 57 -67 37z m3 -142 c2 -10 -3 -17 -12 -17 -10 0 -16 9
-16 21 0 24 23 21 28 -4z"/>
<path d="M7852 4793 c-13 -85 -11 -170 4 -165 14 4 23 48 30 150 6 77 5 92 -8
92 -10 0 -18 -21 -26 -77z"/>
<path d="M8786 4853 c-6 -14 -5 -15 5 -6 7 7 10 15 7 18 -3 3 -9 -2 -12 -12z"/>
<path d="M8380 4839 c0 -5 5 -7 10 -4 6 3 10 8 10 11 0 2 -4 4 -10 4 -5 0 -10
-5 -10 -11z"/>
<path d="M8760 4819 c0 -5 5 -7 10 -4 6 3 10 8 10 11 0 2 -4 4 -10 4 -5 0 -10
-5 -10 -11z"/>
<path d="M8347 4794 c-4 -4 -7 -14 -7 -23 0 -11 3 -12 11 -4 6 6 10 16 7 23
-2 6 -7 8 -11 4z"/>
<path d="M8080 4720 c0 -16 5 -30 10 -30 6 0 10 14 10 30 0 17 -4 30 -10 30
-5 0 -10 -13 -10 -30z"/>
<path d="M8320 4735 c0 -8 2 -15 4 -15 2 0 6 7 10 15 3 8 1 15 -4 15 -6 0 -10
-7 -10 -15z"/>
<path d="M2010 4713 c0 -18 5 -33 10 -33 13 0 13 30 0 50 -7 11 -10 7 -10 -17z"/>
<path d="M8302 4698 c-14 -14 -16 -42 -3 -34 7 5 23 46 17 46 -1 0 -7 -5 -14
-12z"/>
<path d="M7810 4646 c0 -8 -13 -19 -30 -25 -16 -5 -30 -15 -30 -21 0 -6 -4 -8
-10 -5 -5 3 -10 -1 -10 -9 0 -9 -4 -16 -9 -16 -14 0 -23 -32 -12 -43 7 -7 12
-5 17 6 3 9 28 33 55 53 29 21 49 43 49 55 0 10 -4 19 -10 19 -5 0 -10 -6 -10
-14z"/>
<path d="M8005 4650 c3 -5 12 -7 20 -3 21 7 19 13 -6 13 -11 0 -18 -4 -14 -10z"/>
<path d="M8577 4568 c-65 -89 -71 -98 -59 -98 11 0 85 97 107 140 26 50 8 34
-48 -42z"/>
<path d="M2652 4510 c0 -14 2 -19 5 -12 2 6 2 18 0 25 -3 6 -5 1 -5 -13z"/>
<path d="M1862 4472 c-35 -15 -75 -37 -89 -50 -14 -12 -47 -32 -74 -43 -27
-12 -49 -26 -49 -31 0 -5 -5 -6 -12 -2 -6 4 -8 3 -4 -4 3 -6 -19 -27 -54 -49
-33 -21 -60 -41 -60 -46 0 -4 17 3 38 16 20 13 76 41 124 62 57 26 81 42 71
46 -11 3 8 15 53 33 42 16 56 25 36 21 -53 -8 -29 10 53 40 41 15 75 29 75 31
0 11 -52 -1 -108 -24z"/>
<path d="M7591 4474 c0 -11 3 -14 6 -6 3 7 2 16 -1 19 -3 4 -6 -2 -5 -13z"/>
<path d="M8913 4470 c-11 -16 -10 -18 1 -14 15 6 30 34 18 34 -4 0 -13 -9 -19
-20z"/>
<path d="M2136 4465 c4 -8 11 -15 16 -15 6 0 5 6 -2 15 -7 8 -14 15 -16 15 -2
0 -1 -7 2 -15z"/>
<path d="M7619 4462 c-14 -18 -27 -83 -13 -69 9 8 35 80 31 84 -2 1 -10 -5
-18 -15z"/>
<path d="M3175 4343 c18 -67 33 -148 29 -155 -3 -4 0 -34 6 -65 5 -32 10 -76
10 -98 -1 -22 -1 -75 -1 -117 -1 -72 -11 -102 -22 -60 -3 9 -3 -19 -1 -63 2
-55 1 -71 -5 -50 -10 34 -11 28 -15 -68 -2 -44 0 -65 7 -58 15 15 30 91 28
145 0 28 4 53 9 56 15 9 22 341 9 420 -7 36 -15 70 -19 75 -4 6 -10 22 -14 38
-3 15 -11 27 -17 27 -7 0 -9 -10 -4 -27z"/>
<path d="M8765 4339 c-4 -6 -5 -12 -3 -14 7 -7 48 7 48 16 0 13 -37 11 -45 -2z"/>
<path d="M7665 4281 c6 -11 4 -13 -8 -8 -15 6 -22 -3 -18 -25 0 -4 -10 -24
-24 -44 -31 -45 -39 -89 -30 -159 6 -48 4 -54 -9 -49 -32 12 -15 -16 25 -43
l40 -26 26 25 c27 27 53 115 53 181 0 57 -20 124 -43 144 -12 10 -17 12 -12 4z
m-15 -110 c0 -19 -23 -71 -31 -71 -13 0 -11 54 3 68 14 14 28 16 28 3z m-15
-102 c10 -15 -1 -23 -20 -15 -9 3 -13 10 -10 16 8 13 22 13 30 -1z"/>
<path d="M1518 4221 c-103 -56 -187 -115 -253 -176 l-60 -56 47 30 c25 17 52
37 60 44 26 26 174 125 225 151 28 14 54 30 58 36 10 16 -6 10 -77 -29z"/>
<path d="M2300 4251 c0 -7 -4 -9 -10 -6 -14 9 -52 -14 -44 -27 5 -7 1 -9 -9
-5 -14 5 -17 0 -17 -29 0 -26 8 -43 30 -66 31 -31 38 -48 19 -48 -6 0 4 -18
22 -41 25 -32 37 -40 56 -36 16 3 23 0 23 -12 0 -9 9 -22 20 -29 11 -7 20 -20
19 -30 0 -15 -1 -14 -8 3 -8 19 -8 19 -19 0 -10 -17 -13 -18 -22 -5 -7 11 -8
6 -4 -17 4 -22 3 -33 -5 -33 -6 0 -11 -8 -11 -17 0 -9 -3 -14 -6 -10 -10 10
-48 -31 -51 -55 -2 -18 -1 -20 7 -8 9 13 11 13 20 0 5 -8 7 -22 4 -32 -3 -9 6
-27 21 -42 17 -18 25 -34 22 -49 -4 -20 -4 -20 -6 3 -1 19 -3 22 -10 11 -8
-12 -12 -12 -24 -2 -13 10 -17 9 -26 -6 -10 -17 -10 -17 -11 0 0 10 -4 15 -10
12 -5 -3 -10 -1 -10 4 0 6 -7 11 -15 11 -8 0 -15 -8 -15 -17 0 -14 2 -15 9 -4
6 9 18 -5 41 -52 34 -70 53 -86 69 -59 10 16 10 16 11 0 0 -13 8 -16 45 -14
41 3 45 1 45 -19 0 -19 5 -22 30 -19 21 3 30 -1 30 -11 0 -8 6 -15 13 -15 8 0
14 -8 14 -17 -1 -75 3 -92 20 -86 12 5 15 2 11 -9 -4 -10 2 -19 16 -26 20 -9
24 -6 41 32 10 22 23 78 28 122 9 72 9 84 -6 99 -9 9 -17 25 -17 36 0 10 -4
19 -10 19 -5 0 -10 9 -10 20 0 11 -4 20 -10 20 -5 0 -9 12 -9 28 1 16 3 20 6
10 4 -18 27 -19 51 -5 6 5 12 21 12 37 0 16 5 32 10 35 6 3 10 1 10 -5 0 -6 4
-9 9 -5 6 3 9 23 9 44 0 22 3 45 7 52 5 6 7 33 6 60 -1 30 4 53 14 62 12 13
12 17 1 27 -11 9 -15 7 -19 -7 -4 -20 -11 -9 -21 38 -3 14 -18 39 -34 55 -16
17 -26 36 -24 43 3 8 0 11 -7 7 -6 -4 -11 -17 -11 -29 -1 -20 -1 -21 -11 -4
-6 10 -8 24 -5 32 2 7 -2 16 -10 19 -9 3 -12 1 -9 -4 11 -18 -7 -11 -24 9 -14
16 -28 19 -79 16 -34 -2 -64 1 -68 6 -3 5 -14 7 -24 4 -10 -3 -21 -1 -25 4 -4
7 -15 5 -31 -5 -25 -17 -33 -7 -12 14 9 9 9 15 0 24 -9 9 -12 9 -12 -1z m-50
-67 c0 -8 -4 -12 -10 -9 -5 3 -10 10 -10 16 0 5 5 9 10 9 6 0 10 -7 10 -16z
m170 -180 c0 -17 -22 -14 -28 4 -2 7 3 12 12 12 9 0 16 -7 16 -16z m40 -34 c0
-4 -10 -10 -23 -12 -21 -4 -22 -2 -13 18 8 17 14 20 23 12 7 -6 13 -14 13 -18z
m-20 -50 c0 -5 -5 -10 -11 -10 -5 0 -7 5 -4 10 3 6 8 10 11 10 2 0 4 -4 4 -10z
m197 -62 c-3 -8 -6 -5 -6 6 -1 11 2 17 5 13 3 -3 4 -12 1 -19z m-30 -20 c-3
-8 -6 -5 -6 6 -1 11 2 17 5 13 3 -3 4 -12 1 -19z m53 -3 c0 -8 -4 -15 -10 -15
-5 0 -7 7 -4 15 4 8 8 15 10 15 2 0 4 -7 4 -15z"/>
<path d="M8581 4234 c0 -11 3 -14 6 -6 3 7 2 16 -1 19 -3 4 -6 -2 -5 -13z"/>
<path d="M7473 4153 c11 -3 17 -14 17 -31 0 -29 14 -21 25 16 6 20 3 22 -27
21 -18 -1 -25 -3 -15 -6z"/>
<path d="M7255 4130 c-7 -11 16 -11 60 0 28 7 28 8 -12 9 -23 0 -45 -3 -48 -9z"/>
<path d="M7370 4130 c0 -5 6 -10 14 -10 8 0 18 5 21 10 3 6 -3 10 -14 10 -12
0 -21 -4 -21 -10z"/>
<path d="M7205 4110 c-3 -5 -2 -10 4 -10 5 0 13 5 16 10 3 6 2 10 -4 10 -5 0
-13 -4 -16 -10z"/>
<path d="M1799 4078 c-6 -12 -22 -32 -35 -45 -13 -13 -24 -28 -24 -33 0 -17
17 -11 33 13 8 12 24 33 36 46 11 13 21 28 21 33 0 16 -19 8 -31 -14z"/>
<path d="M7132 4090 c-19 -4 -39 -13 -45 -20 -10 -10 -7 -10 9 -2 12 6 24 9
26 6 3 -2 20 2 39 10 37 16 24 19 -29 6z"/>
<path d="M1740 4057 c-53 -66 -70 -81 -81 -70 -7 7 -18 9 -25 6 -10 -4 -12 0
-8 13 5 13 -5 8 -29 -15 -19 -18 -40 -30 -46 -26 -6 3 -26 -4 -43 -17 -53 -38
-79 -48 -103 -42 -13 3 -26 1 -29 -5 -4 -6 -27 -11 -52 -11 -33 0 -44 4 -44
15 0 14 -3 13 -25 -1 -30 -20 -38 -14 -38 26 0 17 -2 30 -4 30 -19 0 -170
-159 -184 -195 -7 -16 -25 -46 -41 -66 -15 -20 -28 -43 -28 -51 0 -8 -13 -32
-29 -54 -16 -21 -32 -50 -36 -64 -4 -14 -18 -48 -31 -77 -12 -28 -44 -111 -69
-185 -25 -73 -55 -151 -65 -174 -87 -191 -194 -644 -151 -644 10 0 7 -103 -4
-142 -5 -19 -3 -28 4 -28 6 0 11 -16 11 -36 0 -44 39 -164 81 -247 87 -173
167 -275 246 -316 23 -11 46 -27 50 -34 4 -7 34 -33 66 -56 32 -23 61 -49 63
-56 7 -18 84 -68 84 -55 0 6 5 8 10 5 6 -4 7 -11 4 -17 -4 -7 -2 -8 5 -4 11 7
29 0 170 -66 58 -27 73 -29 180 -30 72 -1 146 4 196 15 89 18 224 37 300 42
75 5 171 52 248 123 15 14 27 23 27 19 0 -4 35 23 78 60 44 38 137 109 208
160 140 100 200 153 171 153 -9 0 -17 -4 -17 -10 0 -11 -110 -94 -225 -171
-38 -26 -81 -59 -94 -73 -14 -14 -29 -26 -35 -26 -5 0 2 12 16 27 14 16 35 46
46 69 11 22 27 46 35 52 8 7 29 45 46 84 18 40 39 85 47 100 21 38 17 43 -10
12 l-23 -28 0 27 c-1 15 3 30 8 33 5 3 9 14 9 25 0 10 4 19 9 19 5 0 7 -10 4
-23 -4 -16 11 -6 58 40 35 33 82 73 104 88 35 24 37 27 13 21 -25 -6 -28 -4
-28 19 0 31 38 176 50 190 5 6 12 118 15 249 5 166 11 250 21 278 8 22 14 49
14 59 0 21 39 61 52 53 4 -3 8 3 8 13 0 15 2 16 10 3 17 -27 28 3 20 55 -4 28
-8 44 -9 38 -2 -22 -19 -14 -24 10 -4 19 -4 18 -6 -5 0 -15 -19 -65 -41 -112
-22 -46 -40 -91 -40 -99 0 -30 -11 -45 -31 -40 -12 3 -19 14 -19 29 0 15 -6
24 -16 24 -10 0 -14 6 -11 14 3 8 1 16 -5 18 -10 4 -21 74 -21 140 0 23 -2 25
-17 15 -10 -6 -16 -17 -13 -24 3 -7 0 -13 -6 -13 -6 0 -11 -8 -12 -17 0 -15
-2 -14 -9 3 -10 25 -1 82 10 64 4 -7 13 -9 20 -5 10 6 9 11 -4 21 -13 9 -16
19 -11 35 5 14 4 19 -4 15 -16 -10 -14 -1 9 41 10 20 17 40 14 45 -3 4 1 8 9
8 11 0 13 -7 10 -22 -3 -13 -2 -20 2 -15 5 4 9 30 10 57 1 43 -1 48 -14 37
-32 -25 -41 -36 -41 -51 0 -9 -4 -16 -10 -16 -5 0 -10 5 -10 11 0 5 -5 7 -10
4 -7 -4 -6 -14 1 -28 12 -21 11 -21 -8 -4 -11 9 -26 17 -34 17 -12 0 -11 -2 1
-10 13 -8 13 -11 1 -19 -8 -5 -20 -26 -27 -47 -16 -47 -16 -47 -5 -40 5 3 11
-9 14 -27 3 -20 0 -35 -9 -40 -7 -4 -11 -15 -7 -25 4 -13 2 -13 -10 3 -9 11
-17 16 -17 10 0 -5 -8 1 -16 15 -9 14 -13 17 -10 7 7 -20 -27 -71 -39 -59 -3
4 -5 3 -4 -3 2 -5 -2 -20 -9 -31 -19 -36 -15 -100 13 -165 3 -10 2 -20 -4 -24
-18 -10 -12 -25 7 -18 10 4 8 -2 -8 -14 -18 -15 -27 -18 -32 -10 -11 17 -10
39 2 32 13 -8 13 35 0 55 -8 12 -10 11 -10 -7 0 -13 -4 -23 -9 -23 -5 0 -8
-22 -6 -49 2 -39 -1 -48 -11 -44 -9 3 -14 -2 -14 -12 0 -9 -5 -13 -11 -10 -6
4 -13 -2 -16 -14 l-5 -21 -19 21 c-15 17 -19 19 -19 6 0 -22 -18 -31 -35 -17
-12 10 -15 9 -15 -6 0 -14 -2 -16 -9 -6 -5 9 -17 11 -34 6 -20 -4 -27 -13 -28
-33 -2 -23 -2 -24 -6 -3 -6 29 -21 28 -29 -3 -4 -15 -1 -32 7 -43 13 -15 12
-16 -3 -3 -16 12 -18 11 -18 -8 0 -15 -4 -20 -12 -14 -7 4 -15 8 -18 9 -40 8
-52 43 -26 79 14 20 16 26 16 46 0 6 8 8 19 4 13 -4 27 4 46 27 16 18 33 32
38 30 5 -2 6 5 2 15 -4 10 -9 24 -12 31 -3 6 2 12 11 12 9 0 16 5 16 10 0 6
-6 10 -12 10 -10 0 -10 2 0 8 10 7 10 15 2 36 -5 15 -8 32 -4 37 3 5 -8 34
-25 64 -17 30 -29 60 -27 67 1 7 1 9 -2 5 -2 -4 -10 -3 -18 4 -8 7 -17 9 -21
6 -3 -4 -12 -2 -19 4 -9 7 -21 1 -47 -23 -19 -19 -40 -32 -46 -30 -6 2 -11 -1
-11 -8 0 -6 -4 -8 -10 -5 -5 3 -10 -1 -10 -11 0 -13 -3 -14 -14 -5 -10 9 -16
9 -21 1 -4 -6 -14 -9 -22 -6 -9 4 -11 2 -7 -6 5 -8 2 -9 -9 -5 -9 3 -19 2 -22
-4 -4 -5 -11 -6 -17 -3 -7 5 -9 1 -5 -9 3 -9 2 -19 -3 -22 -5 -3 -7 -13 -4
-23 5 -14 2 -13 -11 3 -17 19 -17 18 -11 -27 6 -52 1 -62 -14 -25 -8 21 -9 20
-11 -8 -1 -16 -1 -37 0 -45 0 -9 -2 -10 -5 -3 -7 15 -34 5 -34 -13 0 -13 -13
-19 -34 -15 -4 1 -14 -3 -21 -9 -9 -8 -14 -5 -18 12 -4 13 -2 27 3 32 7 7 10
4 10 -7 0 -9 5 -17 11 -17 7 0 9 10 4 27 -5 22 -4 25 8 15 12 -10 15 -8 19 12
4 19 1 23 -11 18 -14 -5 -14 -4 -2 12 12 14 12 19 1 26 -17 10 -5 44 12 34 10
-5 10 -4 2 5 -14 15 -6 51 11 51 7 0 18 7 25 15 7 8 24 15 39 15 32 0 50 26
57 83 4 23 10 50 16 60 5 9 6 22 3 27 -3 6 -1 10 6 10 29 0 54 80 29 95 -5 3
-10 15 -10 26 0 10 -4 19 -10 19 -5 0 -12 11 -16 24 -8 31 -44 67 -44 44 0 -9
-6 -18 -14 -21 -21 -8 -99 4 -120 19 -21 15 -34 64 -16 64 5 0 10 7 10 15 0 8
-4 15 -10 15 -5 0 -10 9 -10 20 0 11 5 20 10 20 6 0 10 6 10 13 0 7 7 22 16
33 15 19 16 19 9 -1 -23 -66 -14 -72 34 -23 30 31 45 30 17 -1 -8 -9 -16 -23
-18 -31 -2 -8 -7 -18 -13 -22 -6 -5 -5 -8 2 -8 7 0 18 9 25 20 15 24 28 26 28
5 0 -21 9 -19 31 8 l20 22 -6 -32 c-7 -35 6 -50 24 -29 8 9 10 28 5 53 -9 50
-16 61 -25 37 -7 -16 -8 -16 -8 7 -1 28 -30 75 -31 49 0 -9 -8 -16 -19 -16
-12 0 -17 6 -13 18 2 10 0 18 -6 18 -20 0 -21 59 -2 112 10 29 19 49 20 43 1
-5 6 6 10 25 6 26 5 37 -5 43 -11 6 -12 14 -5 33 12 31 12 34 1 34 -5 0 -13
-9 -16 -20 -3 -11 -12 -20 -19 -20 -15 0 -56 -45 -56 -63 -1 -7 -6 -5 -14 6
-13 16 -15 14 -34 -23 -13 -26 -22 -35 -25 -26 -9 23 4 58 19 52 9 -3 16 4 20
19 3 14 10 22 15 19 5 -3 9 0 9 5 0 6 7 11 16 11 13 0 14 3 4 15 -10 12 -6 22
20 55 18 23 31 43 28 45 -2 2 -15 -10 -28 -28z m93 -428 c-8 -31 -20 -22 -15
12 3 19 7 26 12 19 4 -7 5 -21 3 -31z m-447 -226 c-10 -10 -19 5 -10 18 6 11
8 11 12 0 2 -7 1 -15 -2 -18z m-376 -26 c0 -2 -9 -12 -20 -22 -24 -21 -27 -14
-4 9 15 15 24 20 24 13z m730 -23 c0 -8 -4 -12 -10 -9 -5 3 -10 10 -10 16 0 5
5 9 10 9 6 0 10 -7 10 -16z m957 -6 c-3 -8 -6 -5 -6 6 -1 11 2 17 5 13 3 -3 4
-12 1 -19z m-982 -36 c-1 -9 0 -11 2 -4 7 19 50 15 55 -5 6 -22 -15 -76 -25
-67 -4 4 -7 0 -7 -10 0 -17 -45 -40 -61 -30 -12 7 -3 84 11 98 5 5 10 18 10
29 0 10 4 16 9 13 5 -3 8 -14 6 -24z m-65 -142 c0 -5 -5 -10 -11 -10 -5 0 -7
5 -4 10 3 6 8 10 11 10 2 0 4 -4 4 -10z m1260 -65 c0 -8 -4 -15 -10 -15 -5 0
-10 7 -10 15 0 8 5 15 10 15 6 0 10 -7 10 -15z m-428 -67 c-8 -8 -9 -4 -5 13
4 13 8 18 11 10 2 -7 -1 -18 -6 -23z m-15 -75 c-3 -10 -5 -4 -5 12 0 17 2 24
5 18 2 -7 2 -21 0 -30z m-374 7 c3 -11 1 -23 -4 -26 -5 -3 -9 -1 -9 5 0 5 -3
16 -6 25 -3 9 -2 16 4 16 5 0 12 -9 15 -20z m401 6 c-3 -8 -1 -17 5 -21 6 -3
11 -12 11 -18 -1 -16 -30 23 -30 40 0 7 4 13 10 13 5 0 7 -6 4 -14z m249 -24
c3 7 6 3 6 -10 1 -12 8 -38 15 -57 8 -19 11 -35 5 -35 -5 0 -9 7 -9 15 0 8 -7
15 -15 15 -13 0 -65 86 -65 107 0 4 13 -6 29 -21 21 -20 30 -24 34 -14z m-606
-34 c-3 -8 -6 -5 -6 6 -1 11 2 17 5 13 3 -3 4 -12 1 -19z m337 -4 c3 -8 2 -12
-4 -9 -6 3 -10 10 -10 16 0 14 7 11 14 -7z m-580 -29 c-7 -38 1 -45 22 -17 12
15 13 12 14 -28 0 -36 3 -41 11 -27 15 25 29 21 29 -8 0 -24 -2 -25 -47 -20
-27 3 -61 7 -78 8 -16 1 -38 7 -48 13 -17 10 -16 13 10 42 15 18 35 32 45 32
10 0 23 9 30 20 18 28 20 25 12 -15z m597 -12 c-12 -20 -14 -14 -5 12 4 9 9
14 11 11 3 -2 0 -13 -6 -23z m237 -23 c8 -8 22 -15 30 -15 25 0 24 -21 -2 -33
-31 -14 -42 -2 -50 53 -3 22 -3 33 1 25 3 -8 13 -21 21 -30z m5 -93 c-3 -4
-13 -1 -24 9 -10 9 -16 20 -14 25 3 4 1 10 -5 14 -5 3 -10 12 -10 18 0 7 13
-3 29 -22 17 -19 27 -39 24 -44z m47 33 c0 -5 -2 -10 -4 -10 -3 0 -8 5 -11 10
-3 6 -1 10 4 10 6 0 11 -4 11 -10z m0 -40 c0 -5 -2 -10 -4 -10 -3 0 -8 5 -11
10 -3 6 -1 10 4 10 6 0 11 -4 11 -10z m-720 -81 c0 -9 -8 -23 -17 -30 -15 -13
-16 -12 -8 6 4 11 8 31 8 44 -1 18 1 20 8 10 5 -8 9 -21 9 -30z m-950 -519 c8
-5 11 -12 8 -16 -10 -9 -38 3 -38 16 0 12 10 13 30 0z m810 -310 c0 -5 -4 -10
-9 -10 -6 0 -13 5 -16 10 -3 6 1 10 9 10 9 0 16 -4 16 -10z m3 -72 c-6 -11
-31 -10 -37 1 -3 5 5 8 18 7 13 0 22 -4 19 -8z"/>
<path d="M7455 4044 c-9 -20 -14 -38 -12 -41 10 -9 27 8 27 26 0 9 5 22 11 28
7 7 7 13 1 17 -5 3 -17 -10 -27 -30z"/>
<path d="M1685 4043 l-17 -28 23 22 c12 12 20 25 17 28 -3 3 -13 -7 -23 -22z"/>
<path d="M7030 4040 c-14 -10 -22 -21 -19 -24 2 -3 18 6 34 19 35 29 22 33
-15 5z"/>
<path d="M8437 4015 c-61 -76 -106 -227 -76 -252 41 -31 125 -18 114 18 -3 10
3 36 15 58 22 43 26 104 10 145 -8 22 -7 26 9 26 33 0 32 27 -1 34 -43 8 -40
10 -71 -29z m51 -86 c-5 -35 -28 -36 -28 -1 0 16 3 32 7 36 11 11 25 -10 21
-35z m-18 -69 c0 -5 -4 -10 -10 -10 -5 0 -10 5 -10 10 0 6 5 10 10 10 6 0 10
-4 10 -10z"/>
<path d="M8560 4036 c0 -9 5 -16 10 -16 6 0 10 4 10 9 0 6 -4 13 -10 16 -5 3
-10 -1 -10 -9z"/>
<path d="M6985 4002 c-6 -4 -33 -32 -60 -62 l-50 -55 45 40 c56 49 101 103 65
77z"/>
<path d="M7392 3948 c-19 -19 -14 -30 8 -18 11 6 20 15 20 20 0 14 -14 12 -28
-2z"/>
<path d="M8570 3856 c0 -9 5 -16 10 -16 6 0 10 4 10 9 0 6 -4 13 -10 16 -5 3
-10 -1 -10 -9z"/>
<path d="M6820 3825 c-7 -9 -11 -18 -8 -20 3 -3 11 1 18 10 7 9 11 18 8 20 -3
3 -11 -1 -18 -10z"/>
<path d="M8584 3731 c9 -17 18 -31 20 -31 10 0 -12 54 -23 58 -9 3 -8 -4 3
-27z"/>
<path d="M6781 3717 c-26 -42 -29 -66 -6 -47 8 7 15 20 15 29 0 9 5 22 12 29
6 6 9 14 6 17 -3 3 -15 -9 -27 -28z"/>
<path d="M7175 3677 c-4 -10 -5 -21 -1 -24 10 -10 18 4 13 24 -4 17 -4 17 -12
0z"/>
<path d="M6747 3637 c-4 -10 -7 -26 -7 -35 1 -15 2 -15 11 1 6 10 9 25 7 35
-3 16 -4 15 -11 -1z"/>
<path d="M1910 3599 c-6 -11 -10 -37 -8 -57 3 -36 4 -37 45 -38 34 -2 40 1 36
14 -4 10 -2 13 5 8 8 -5 12 1 11 16 0 13 -3 17 -6 10 -7 -18 -23 -4 -24 21 l0
22 -9 -22 c-13 -31 -18 -29 -16 7 3 35 -19 48 -34 19z m11 -12 c-10 -9 -11 -8
-5 6 3 10 9 15 12 12 3 -3 0 -11 -7 -18z"/>
<path d="M3157 3543 c-3 -21 -8 -54 -11 -73 l-6 -35 13 35 c19 49 30 110 19
110 -5 0 -12 -17 -15 -37z"/>
<path d="M6731 3564 c0 -11 3 -14 6 -6 3 7 2 16 -1 19 -3 4 -6 -2 -5 -13z"/>
<path d="M6716 3502 c-2 -4 -4 -34 -4 -67 l1 -59 28 59 c31 65 31 81 -1 44
l-20 -24 6 28 c6 26 1 36 -10 19z"/>
<path d="M1950 3480 c0 -5 5 -10 10 -10 6 0 10 5 10 10 0 6 -4 10 -10 10 -5 0
-10 -4 -10 -10z"/>
<path d="M2712 3440 c0 -14 2 -19 5 -12 2 6 2 18 0 25 -3 6 -5 1 -5 -13z"/>
<path d="M7217 3453 c-6 -11 -2 -51 6 -59 4 -4 7 -1 7 7 0 8 3 24 6 37 6 20
-9 32 -19 15z"/>
<path d="M3131 3423 c-1 -6 -4 -20 -7 -30 -5 -17 -5 -17 6 0 6 10 9 23 6 30
-3 9 -5 9 -5 0z"/>
<path d="M2746 3399 c3 -15 1 -30 -5 -33 -6 -4 -11 -2 -11 5 0 7 -2 10 -5 7
-11 -10 8 -38 25 -38 41 0 47 9 36 45 -11 34 -26 47 -26 23 0 -9 -4 -8 -10 2
-8 11 -9 8 -4 -11z"/>
<path d="M2168 3398 c-15 -5 -30 -17 -33 -26 -3 -9 -17 -24 -32 -33 -19 -10
-28 -24 -29 -42 -2 -33 -1 -33 21 -1 9 15 11 23 4 19 -7 -5 -10 -4 -5 3 4 6
13 9 21 5 17 -6 20 -39 5 -48 -5 -3 -10 -14 -10 -23 1 -12 5 -10 15 8 8 14 15
21 15 15 0 -5 5 -3 11 5 8 12 9 11 7 -6 -2 -11 1 -21 5 -22 4 -1 15 -8 23 -17
20 -20 26 -19 58 6 18 14 26 31 27 52 1 29 2 29 8 8 5 -19 8 -21 18 -10 35 43
0 97 -68 104 -9 1 -20 4 -25 7 -5 3 -21 1 -36 -4z m22 -108 c0 -5 7 -10 15
-10 8 0 15 -4 15 -10 0 -19 -38 -10 -43 10 -3 11 -1 20 4 20 5 0 9 -4 9 -10z"/>
<path d="M7225 3343 c8 -35 32 -73 45 -73 13 0 13 6 0 28 -5 9 -14 29 -20 45
-5 15 -15 27 -21 27 -7 0 -9 -10 -4 -27z"/>
<path d="M3140 3340 c11 -11 20 -26 20 -34 0 -26 98 -123 129 -129 34 -7 66
-57 58 -88 -3 -11 -1 -19 4 -19 5 0 9 -4 9 -9 0 -15 -121 -33 -215 -33 -107 0
-77 -14 35 -16 77 -2 183 17 203 37 7 7 7 11 1 11 -6 0 -9 13 -6 29 6 39 -23
80 -72 101 -50 22 -126 94 -126 119 0 10 -11 26 -25 35 -33 22 -39 20 -15 -4z"/>
<path d="M2556 3314 c-4 -9 -4 -19 -1 -22 2 -3 7 3 11 12 4 9 4 19 1 22 -2 3
-7 -3 -11 -12z"/>
<path d="M6695 3297 c-4 -10 -5 -21 -1 -24 10 -10 18 4 13 24 -4 17 -4 17 -12
0z"/>
<path d="M8637 3290 c-4 -14 -7 -39 -7 -57 0 -20 -10 -44 -27 -64 -23 -27 -24
-30 -6 -21 12 7 31 32 43 58 18 36 21 52 13 77 -9 32 -9 32 -16 7z"/>
<path d="M7390 3172 c0 -18 64 -65 105 -77 38 -12 43 -12 38 1 -3 8 -17 14
-30 14 -16 0 -38 13 -59 35 -31 33 -54 45 -54 27z"/>
<path d="M8669 3118 c-1 -13 -2 -35 -3 -51 -1 -15 2 -33 6 -40 4 -6 8 16 8 51
0 34 -2 62 -5 62 -3 0 -6 -10 -6 -22z"/>
<path d="M8545 3108 c-6 -13 -37 -37 -70 -55 -56 -30 -58 -32 -29 -33 31 0
114 50 114 69 0 5 3 16 6 25 10 25 -10 19 -21 -6z"/>
<path d="M2975 3070 c3 -5 10 -10 16 -10 5 0 9 5 9 10 0 6 -7 10 -16 10 -8 0
-12 -4 -9 -10z"/>
<path d="M7790 3030 c-19 -4 -30 -8 -23 -9 6 0 17 -3 25 -6 7 -3 22 1 33 9 22
17 18 17 -35 6z"/>
<path d="M2948 3013 c18 -2 45 -2 60 0 15 2 0 4 -33 4 -33 0 -45 -2 -27 -4z"/>
<path d="M7995 2990 c3 -5 8 -10 11 -10 2 0 4 5 4 10 0 6 -5 10 -11 10 -5 0
-7 -4 -4 -10z"/>
<path d="M8673 2950 c0 -30 2 -43 4 -27 2 15 2 39 0 55 -2 15 -4 2 -4 -28z"/>
<path d="M6721 2974 c0 -11 3 -14 6 -6 3 7 2 16 -1 19 -3 4 -6 -2 -5 -13z"/>
<path d="M2422 2950 c0 -14 2 -19 5 -12 2 6 2 18 0 25 -3 6 -5 1 -5 -13z"/>
<path d="M6731 2868 c0 -13 4 -32 9 -43 7 -16 9 -13 9 17 1 20 -3 40 -9 43 -6
3 -10 -4 -9 -17z"/>
<path d="M8672 2870 c0 -14 2 -19 5 -12 2 6 2 18 0 25 -3 6 -5 1 -5 -13z"/>
<path d="M8661 2754 c0 -11 3 -14 6 -6 3 7 2 16 -1 19 -3 4 -6 -2 -5 -13z"/>
<path d="M6760 2735 c-1 -22 36 -125 44 -125 4 0 5 8 1 18 -4 9 -12 35 -18 57
-9 39 -27 70 -27 50z"/>
<path d="M8597 2557 c-3 -24 -9 -52 -12 -62 -3 -11 1 -6 8 10 18 39 29 95 18
95 -5 0 -11 -19 -14 -43z"/>
<path d="M6845 2570 c-3 -5 -1 -10 4 -10 6 0 11 5 11 10 0 6 -2 10 -4 10 -3 0
-8 -4 -11 -10z"/>
<path d="M6833 2524 c-3 -8 -1 -20 6 -27 8 -8 11 -4 11 16 0 30 -7 35 -17 11z"/>
<path d="M6831 2454 c0 -11 3 -14 6 -6 3 7 2 16 -1 19 -3 4 -6 -2 -5 -13z"/>
<path d="M8567 2463 c-4 -3 -7 -11 -7 -17 0 -6 5 -5 12 2 6 6 9 14 7 17 -3 3
-9 2 -12 -2z"/>
<path d="M8525 2390 c-15 -22 -26 -43 -23 -46 6 -6 41 41 51 69 10 27 2 20
-28 -23z"/>
<path d="M6850 2345 c0 -6 7 -28 16 -50 l15 -40 -6 40 c-6 36 -25 75 -25 50z"/>
<path d="M8470 2315 c-8 -9 -8 -15 -2 -15 12 0 26 19 19 26 -2 2 -10 -2 -17
-11z"/>
<path d="M6880 2240 c0 -5 5 -10 11 -10 5 0 7 5 4 10 -3 6 -8 10 -11 10 -2 0
-4 -4 -4 -10z"/>
<path d="M2841 2231 c-9 -6 -4 -10 18 -13 21 -3 31 0 31 9 0 15 -28 17 -49 4z"/>
<path d="M8319 2204 c-29 -15 -67 -54 -52 -54 5 0 18 9 28 20 10 11 24 20 31
20 12 0 30 19 23 24 -2 1 -16 -3 -30 -10z"/>
<path d="M6950 2194 c0 -19 24 -84 31 -84 4 0 1 20 -8 45 -13 40 -23 56 -23
39z"/>
<path d="M8160 2125 c-8 -9 -8 -15 -2 -15 12 0 26 19 19 26 -2 2 -10 -2 -17
-11z"/>
<path d="M8086 2065 c-21 -18 -25 -25 -13 -25 10 0 17 -4 17 -10 0 -5 11 -12
25 -16 14 -3 36 -20 50 -38 17 -21 25 -26 25 -14 0 15 -36 50 -75 73 -15 9
-16 14 -6 33 15 28 13 28 -23 -3z"/>
<path d="M7772 2038 c-29 -17 -51 -32 -49 -35 6 -6 104 43 112 57 10 16 -5 10
-63 -22z"/>
<path d="M7466 2031 c-6 -9 12 -123 21 -131 3 -3 2 23 -2 58 -5 43 -4 62 4 62
6 0 11 5 11 10 0 12 -27 13 -34 1z"/>
<path d="M7567 2001 c3 -12 11 -17 19 -14 11 4 11 7 -1 19 -19 19 -24 18 -18
-5z"/>
<path d="M2756 1965 c-27 -25 -46 -48 -43 -52 8 -7 50 30 79 70 10 15 18 27
16 27 -2 0 -25 -21 -52 -45z"/>
<path d="M7510 2000 c0 -5 7 -10 16 -10 8 0 12 5 9 10 -3 6 -10 10 -16 10 -5
0 -9 -4 -9 -10z"/>
<path d="M7640 1990 c0 -5 5 -10 10 -10 6 0 10 5 10 10 0 6 -4 10 -10 10 -5 0
-10 -4 -10 -10z"/>
<path d="M7820 1937 c0 -11 29 -67 35 -67 2 0 2 8 -2 18 -8 22 -33 59 -33 49z"/>
<path d="M8177 1934 c-4 -4 -7 -14 -7 -23 0 -11 3 -12 11 -4 6 6 10 16 7 23
-2 6 -7 8 -11 4z"/>
<path d="M8072 1883 c-2 -32 -7 -43 -22 -48 -11 -3 -20 -11 -20 -16 0 -13 13
-11 34 4 13 10 16 23 13 57 l-4 45 -1 -42z"/>
<path d="M7454 1869 c3 -17 6 -46 6 -63 1 -21 3 -26 9 -16 11 20 2 110 -11
110 -6 0 -8 -13 -4 -31z"/>
<path d="M8110 1865 c-20 -24 -6 -28 15 -5 10 11 13 20 8 20 -6 0 -16 -7 -23
-15z"/>
<path d="M7040 1860 c0 -5 5 -10 10 -10 6 0 10 5 10 10 0 6 -4 10 -10 10 -5 0
-10 -4 -10 -10z"/>
<path d="M7036 1808 c-10 -38 -6 -45 9 -18 17 29 18 40 6 40 -5 0 -11 -10 -15
-22z"/>
<path d="M7462 1750 c0 -14 2 -19 5 -12 2 6 2 18 0 25 -3 6 -5 1 -5 -13z"/>
<path d="M7011 1719 c-13 -38 -13 -39 -2 -39 9 0 24 60 17 67 -2 2 -9 -10 -15
-28z"/>
<path d="M7008 1665 c-3 -4 -2 -20 2 -37 10 -33 30 -61 38 -53 3 2 -1 11 -8
20 -7 8 -15 29 -19 46 -3 17 -9 28 -13 24z"/>
<path d="M7087 1652 c-12 -17 1 -86 20 -109 14 -17 14 -17 8 2 -4 11 -10 43
-14 70 -4 32 -9 45 -14 37z"/>
<path d="M7197 1653 c-18 -17 4 -87 29 -97 9 -3 6 6 -7 24 -14 18 -20 37 -17
54 6 28 5 30 -5 19z"/>
<path d="M7250 1540 c0 -5 5 -10 10 -10 6 0 10 5 10 10 0 6 -4 10 -10 10 -5 0
-10 -4 -10 -10z"/>
<path d="M7358 1543 c6 -2 18 -2 25 0 6 3 1 5 -13 5 -14 0 -19 -2 -12 -5z"/>
</g>
</svg>
